<svg version="1.1" xmlns="http://www.w3.org/2000/svg" xmlns:xlink="http://www.w3.org/1999/xlink" width="99" height="114" viewBox="0,0,222.3125,256"><defs><clipPath id="clip-1"><rect x="0.26563" y="0" width="98.7342" height="113.878" id="clip0_5283_57" fill="none"></rect></clipPath></defs><g fill="none" fill-rule="nonzero" stroke="none" stroke-width="1" stroke-linecap="butt" stroke-linejoin="miter" stroke-miterlimit="10" stroke-dasharray="" stroke-dashoffset="0" font-family="none" font-weight="none" font-size="none" text-anchor="none" style="mix-blend-mode: normal"><g transform="translate(-0.29969,0.13698) scale(2.24561,2.24561)"><g clip-path="url(#clip-1)"><path d="M98.985,8.72026c-0.0455,-0.09131 -0.1519,-0.15219 -0.2582,-0.12175c-0.9266,0.39567 -1.8532,0.73047 -2.8101,1.08049c-2.6279,0.974 -5.362,1.6131 -8.0962,2.2523c-3.1291,0.7 -6.319,1.2022 -9.4329,1.9784c-2.6886,0.6543 -5.3621,1.4457 -7.9443,2.4805c-1.9443,0.7609 -3.8583,1.5827 -5.6507,2.6328c-2.1266,1.1718 -3.843,2.9219 -5.5139,4.6567c-1.5342,1.6132 -3.0835,3.2263 -4.4354,5.0068c-0.7595,1.0044 -1.3975,2.1001 -2.0051,3.1958c0.957,-3.6219 2.2937,-7.2743 4.7392,-10.1657c0.1823,-0.2283 -0.0303,-0.5022 -0.2886,-0.3805c-0.6227,0.3044 -1.2,0.7001 -1.7924,1.0653c-4.5265,3.0741 -8.5671,6.8938 -12.0455,11.1093c-1.7013,2.0849 -3.3418,4.2154 -4.6937,6.5438c-1.5646,2.724 -2.7494,5.6611 -3.6,8.6896c-0.0911,-1.7958 0.0608,-3.5915 0.3038,-5.372c0.0456,-0.3196 0.0911,-0.624 0.1063,-0.9436c0,-0.213 0.0608,-0.5174 -0.1519,-0.6391c-0.1519,-0.0761 -0.3038,0 -0.4101,0.1217c-0.1367,0.137 -0.243,0.2892 -0.3646,0.4413c-0.243,0.3196 -0.486,0.6544 -0.7139,0.9892c-0.7595,1.0805 -1.443,2.2219 -2.0354,3.4089c-1.4583,2.998 -2.795,6.0264 -4.1469,9.07c-1.3671,3.0437 -2.6278,6.1482 -3.9493,9.207c-1.2608,2.8915 -2.6431,5.7373 -4.0709,8.5526c-0.7747,1.5066 -1.5646,3.0132 -2.4912,4.4437c-0.3949,0.6088 -0.805,1.2023 -1.2303,1.7806c0.0607,-0.1218 0.1215,-0.2283 0.1822,-0.35c1.2456,-2.4502 2.0962,-5.0677 2.8709,-7.7004c0.638,-1.6893 1.276,-3.3785 1.9899,-5.022c0.8354,-1.8719 1.5797,-3.7741 2.2937,-5.6916c1.4278,-3.622 3.1595,-7.0917 5.1341,-10.4549c1.276,-2.1762 2.6431,-4.3068 3.8887,-6.5134c1.1696,-2.0697 2.0962,-4.2611 3.1594,-6.3764c0.7899,-1.5827 1.595,-3.1654 2.2785,-4.7938c0.1975,-0.4565 0.395,-0.9283 0.5772,-1.4c0.076,-0.2283 0.1671,-0.4718 0.2127,-0.7153c0,-0.0913 0.0152,-0.1978 -0.0456,-0.2891c-0.1367,-0.2131 -0.4101,-0.137 -0.5772,0c-0.4861,0.3652 -0.9418,0.7457 -1.4126,1.1413c-1.519,1.2936 -3.0988,2.511 -4.7241,3.6676c3.4785,-4.2306 7.1848,-8.5526 8.8557,-13.879c0.1215,-0.4565 0.4557,-1.5979 0.1215,-1.9783c-0.2278,-0.1979 -0.486,0.0761 -0.6228,0.2435c-1.4126,1.7653 -2.9012,3.4697 -4.5569,5.0067c0.638,-1.0044 1.2455,-2.0392 1.7924,-3.1045c0.9114,-1.8261 1.8076,-3.6675 2.5519,-5.5698c0.881,-2.3284 1.5494,-4.7177 2.2481,-7.09169c0.7139,-2.58709 1.3519,-5.20462 2.1266,-7.77649c0.0759,-0.24349 0.1519,-0.48698 0.1974,-0.74569c0,-0.07609 0.0304,-0.1674 0,-0.24349c-0.0455,-0.13696 -0.2126,-0.22827 -0.3493,-0.18262c-0.1216,0.03044 -0.2431,0.10653 -0.3494,0.19784c-1.5494,1.46094 -2.9316,3.08929 -4.4203,4.59589c-1.0936,1.12614 -2.2025,2.26751 -3.2506,3.43931c-2.1114,2.40444 -3.9949,5.02204 -5.4835,7.85254c-1.3519,2.5719 -2.3393,5.3568 -2.9469,8.2026c-0.8202,3.7133 -1.0936,7.5178 -1.6101,11.2767c-0.5924,-1.6283 -0.9418,-3.348 -1.0177,-5.0981c-0.0304,-0.5783 -0.0608,-1.187 -0.0912,-1.8109c0,-0.2892 0,-0.9131 -0.4405,-0.7762c-0.1367,0.0761 -0.2126,0.2283 -0.2886,0.3805c-0.1367,0.2739 -0.2582,0.5631 -0.3797,0.8522c-0.3798,0.8827 -0.8051,1.7349 -1.2,2.6023c-1.1241,2.4349 -2.0962,4.9611 -2.5975,7.5939c-0.4405,2.161 -0.6683,4.3676 -0.6683,6.559c0,3.0741 0.4708,6.1025 0.4557,9.1918c-0.8355,-1.3544 -1.6861,-2.7241 -2.0355,-4.3067c-0.1823,-0.7457 -0.319,-1.4914 -0.4405,-2.2371c-0.0304,-0.2131 -0.0759,-0.4413 -0.1063,-0.6544c-0.0304,-0.1522 -0.0304,-0.35 -0.1519,-0.4565c-0.2734,-0.2131 -0.4557,0.1521 -0.5165,0.3804c-0.5164,1.6436 -0.7747,3.3784 -0.8354,5.1133c-0.076,1.7501 0.0911,3.5002 0.2582,5.2503c0.1519,1.5827 0.319,3.1654 0.4253,4.7633c-0.0759,0.5783 -0.1063,1.1566 -0.1519,1.7349c-0.1822,2.8458 -0.5012,5.6915 -1.0481,8.4917c-0.3645,2.2523 -0.8354,4.4741 -1.6253,6.6351c-0.4557,1.5371 -1.0481,3.0284 -1.7924,4.4437c-0.1215,0.1979 -0.2278,0.4109 -0.3342,0.6088c-1.4734,2.6327 -2.82529,5.3263 -4.31389,7.9439c-0.89621,1.537 -1.76203,3.1045 -2.56709,4.7024c-0.59241,1.0348 -1.13924,2.0849 -1.61013,3.1655c-0.41013,0.913 -0.80506,1.841 -1.16962,2.77c-0.13671,0.395 -0.53164,1.187 -0.31899,1.582c0.31899,0.289 0.57722,-0.091 0.77469,-0.502c0.04557,-0.046 0.09114,-0.091 0.12152,-0.137c0.12152,-0.167 0.22784,-0.335 0.31898,-0.517c0.24304,-0.411 0.48608,-0.807 0.71393,-1.203c1.00253,-1.75 1.97468,-3.515 2.96202,-5.2803c1.47342,-2.7393 3.08355,-5.4024 4.70888,-8.0656c0.2734,-0.4413 0.5316,-0.8827 0.805,-1.3392c0.3342,-0.487 0.6684,-0.9588 1.0178,-1.4457c0.6228,-0.8523 1.2911,-1.674 2.0202,-2.435c0.8962,-0.9891 2.0203,-1.9479 3.0684,-2.7849c1.519,-1.2326 2.8861,-2.6327 4.2228,-4.048c3.1139,-3.3937 6.0455,-6.9547 9.0835,-10.4245c2.0203,-2.4349 4.1924,-4.7785 6.5165,-6.909c1.7164,-1.4458 3.4936,-2.8306 5.3012,-4.1546c2.8861,-2.0697 5.9241,-3.9111 8.795,-6.0112c3.3873,-2.4805 6.6987,-5.0676 9.7367,-7.9743c0.0911,-0.1065 0.1974,-0.2283 0.1367,-0.3804c-0.0608,-0.1979 -0.3038,-0.1674 -0.4709,-0.1218c-0.6836,0.1826 -1.3367,0.4566 -2.0051,0.624c-0.6835,0.1521 -1.3822,0.2891 -2.0658,0.4108c-1.8683,0.3653 -3.7823,0.5175 -5.681,0.5327c1.0785,-0.4109 2.1721,-0.8066 3.2658,-1.1718c2.719,-0.8218 5.4684,-1.5218 8.1266,-2.5262c4.7241,-1.6284 8.8557,-4.5503 12.638,-7.7613c0.9266,-0.7761 1.8683,-1.5523 2.719,-2.4197c0.1519,-0.1826 0.3797,-0.35 0.4101,-0.6087c0,-0.3044 -0.3646,-0.3044 -0.5924,-0.2435c-2.1266,0.4565 -4.2684,0.8979 -6.4253,1.1261c-1.4279,0.137 -2.9165,0.2435 -4.3443,-0.0152c1.6557,-0.5022 3.3265,-0.9435 5.0278,-1.2935c1.5798,-0.3196 3.1747,-0.624 4.7089,-1.0957c2.3848,-0.7001 4.5265,-2.0697 6.3493,-3.7437c1.0937,-1.0501 2.1114,-2.1762 3.114,-3.3176c1.0632,-1.2174 2.0202,-2.5262 3.1443,-3.698c1.4734,-1.5523 3.0835,-2.9675 4.8,-4.2307c1.2759,-1.0044 2.643,-1.85657 4.0557,-2.66313c0.1063,-0.06088 0.2126,-0.09131 0.319,-0.15219c0.0911,-0.06087 0.1215,-0.1674 0.0759,-0.27392zM15.9724,81.0218c0,0 0,0 -0.0304,0h0.0152zM19.6028,64.6623c1.1696,-3.835 2.2936,-7.6852 3.5088,-11.505c1.1393,-3.911 2.2785,-7.8221 3.4785,-11.7027c1.3367,-4.5959 2.4,-9.2679 3.8127,-13.8486c1.0025,-3.2262 2.1265,-6.4221 3.3873,-9.557c1.1392,-2.8306 2.4152,-5.6155 4.1468,-8.14173c-1.4126,3.36323 -2.8708,6.69603 -4.1012,10.12013c-1.1848,2.9979 -2.1874,6.0568 -3.0532,9.1613c-2.1114,6.8634 -3.3873,13.9551 -5.4228,20.8337c-0.8658,3.0436 -1.838,6.0568 -2.8861,9.0548c-0.7443,2.1458 -1.6253,4.2915 -2.3544,6.4373c-1.6253,4.7633 -3.1291,9.5722 -4.9823,14.2594c-0.0303,0.0305 -0.0607,0.0609 -0.0911,0.0913c-0.0608,-0.0152 -0.1215,0 -0.1671,0.0153c0.319,-1.0044 0.6228,-2.024 0.881,-3.0437c1.2304,-4.0784 2.5823,-8.1113 3.8431,-12.1745zM65.2635,27.256c-1.762,1.2175 -3.524,2.4349 -5.1949,3.7589c-2.7798,2.2218 -5.4836,4.5198 -8.1722,6.8482c-1.5645,1.4 -2.9772,2.9675 -4.4506,4.4741c-1.4582,1.5218 -2.9316,3.0132 -4.3139,4.5959c-1.838,2.0545 -3.7215,4.0785 -5.4836,6.209c-1.5493,1.8262 -2.962,3.7741 -4.3595,5.7221c-1.0329,1.3848 -2.081,2.7697 -3.0531,4.2002c-1.1545,1.6588 -2.3545,3.2719 -3.5089,4.9307c-1.1544,1.674 -2.2937,3.348 -3.4177,5.0372c-0.7139,1.0653 -1.4279,2.1457 -2.2633,3.1349c-0.9873,1.1718 -2.0051,2.4045 -3.1291,3.485c-0.4253,0.3804 -0.8355,0.7609 -1.2456,1.1566c0,0 0,0 -0.0152,0c-0.1974,-0.0457 -0.1974,-0.2283 -0.1519,-0.3805c0.8051,-0.8979 1.6102,-1.7805 2.4,-2.6936c0.957,-1.1109 1.8228,-2.2979 2.6279,-3.5154c4.2835,-6.2699 8.6126,-12.5246 13.2152,-18.5814c1.7164,-2.2371 3.4936,-4.4437 5.4076,-6.5134c3.2962,-3.5002 6.6987,-6.8786 10.1012,-10.2875c4.3899,-4.3828 9.0684,-8.4917 14.157,-12.0375c4.0557,-2.7393 8.3696,-5.0829 12.8202,-7.1069c-4.162,2.237 -8.0506,4.9611 -11.9696,7.5786z" fill="#da3434"></path><path d="M69.0001,104.26c-0.1215,0.259 -0.2886,0.487 -0.4709,0.7c-1.9139,1.994 -4.7392,3.029 -7.4126,3.561c-2.7038,0.563 -5.4836,0.046 -8.1266,-0.548c2.6278,-2.176 5.5747,-4.717 6.1671,-8.2631c0.5772,-4.2459 -3.4177,-7.0004 -7.2608,-7.183c-12.8506,-0.4261 -24.4557,6.559 -35.3468,12.6011c-4.1317,2.267 -8.7342,5.174 -13.64053,4.032c-0.68354,-0.197 -1.38228,-0.639 -1.59493,-1.369c0.01519,-0.198 -0.07595,-0.426 -0.27342,-0.518c-1.51899,-0.304 -0.44051,1.842 0.25823,2.222c6.03038,3.455 14.41515,-2.952 19.74685,-5.722c5.4987,-3.013 11.1797,-6.0567 17.1645,-8.0199c4.9671,-1.4761 10.8456,-3.1197 15.9646,-1.7348c2.6127,0.7609 4.6481,3.5001 3.8127,6.2397c-1.0481,3.165 -3.7671,5.402 -6.3038,7.381c-3.995,-0.959 -8.1418,-2.009 -12.2735,-1.416c-2.2784,0.411 -4.9063,1.218 -6.0455,3.409c-1.7772,3.592 2.6734,4.292 5.2557,4.216c4.8455,-0.153 9.4633,-2.146 13.2911,-5.083c4.3443,1.141 8.643,1.567 12.881,-0.229c1.9139,-0.882 4.0861,-1.856 5.119,-3.819c0.319,-0.594 -0.6228,-1.081 -0.9266,-0.487zM38.4837,112.828c-1.3975,-0.107 -3.8583,0.091 -4.4507,-1.476c-0.0911,-1.979 2.0962,-3.135 3.7367,-3.637c4.2076,-1.279 8.6431,-0.213 12.8051,0.761c-3.5089,2.571 -7.7165,4.23 -12.0911,4.352z" fill="#da3434"></path></g></g></g></svg>